<svg width="32" height="32" viewBox="0 0 32 32" fill="none" xmlns="http://www.w3.org/2000/svg">
<path d="M10 11V9C10 7.4087 10.6321 5.88258 11.7574 4.75736C12.8826 3.63214 14.4087 3 16 3C17.5913 3 19.1174 3.63214 20.2426 4.75736C21.3679 5.88258 22 7.4087 22 9V11M5 11C4.73478 11 4.48043 11.1054 4.29289 11.2929C4.10536 11.4804 4 11.7348 4 12V25.5C4 27.39 5.61 29 7.5 29H24.5C26.39 29 28 27.4681 28 25.5781V12C28 11.7348 27.8946 11.4804 27.7071 11.2929C27.5196 11.1054 27.2652 11 27 11H5Z" stroke="white" stroke-width="2" stroke-linecap="round" stroke-linejoin="round"/>
</svg>
