<svg width="16" height="9" viewBox="0 0 16 9" fill="none" xmlns="http://www.w3.org/2000/svg">
<path d="M15.0531 0.413363C14.9298 0.289758 14.7833 0.191695 14.622 0.124786C14.4607 0.0578778 14.2878 0.0234375 14.1131 0.0234375C13.9385 0.0234375 13.7656 0.0578778 13.6043 0.124786C13.443 0.191695 13.2965 0.289758 13.1731 0.413363L7.99981 5.5867L2.82647 0.413363C2.57717 0.16406 2.23904 0.0240021 1.88648 0.0240021C1.53391 0.0240021 1.19578 0.16406 0.946473 0.413363C0.69717 0.662667 0.557114 1.00079 0.557114 1.35336C0.557114 1.70593 0.69717 2.04406 0.946473 2.29336L7.06647 8.41336C7.18983 8.53697 7.33634 8.63503 7.49764 8.70194C7.65894 8.76885 7.83185 8.80329 8.00647 8.80329C8.1811 8.80329 8.35401 8.76885 8.51531 8.70194C8.6766 8.63503 8.82312 8.53697 8.94647 8.41336L15.0665 2.29336C15.5731 1.7867 15.5731 0.933363 15.0531 0.413363Z" fill="white"/>
</svg>
