<svg width="32" height="32" viewBox="0 0 32 32" fill="none" xmlns="http://www.w3.org/2000/svg">
<path d="M14.3598 24.4C12.3741 24.4 10.433 23.8112 8.7819 22.708C7.13083 21.6048 5.84398 20.0367 5.08408 18.2022C4.32417 16.3676 4.12535 14.3489 4.51274 12.4013C4.90014 10.4537 5.85636 8.66478 7.26048 7.26066C8.6646 5.85654 10.4536 4.90032 12.4011 4.51293C14.3487 4.12553 16.3674 4.32436 18.202 5.08426C20.0365 5.84417 21.6046 7.13102 22.7078 8.78209C23.811 10.4332 24.3998 12.3743 24.3998 14.36C24.3998 15.6785 24.1401 16.984 23.6356 18.2022C23.131 19.4203 22.3915 20.5271 21.4592 21.4594C20.5269 22.3917 19.4201 23.1312 18.202 23.6358C16.9839 24.1403 15.6783 24.4 14.3598 24.4ZM14.3598 6.33335C12.7776 6.33335 11.2309 6.80254 9.91527 7.68159C8.59967 8.56064 7.57429 9.81007 6.96879 11.2719C6.36329 12.7337 6.20486 14.3422 6.51355 15.8941C6.82223 17.4459 7.58415 18.8714 8.70297 19.9902C9.82179 21.109 11.2473 21.8709 12.7991 22.1796C14.351 22.4883 15.9595 22.3299 17.4213 21.7244C18.8831 21.1189 20.1325 20.0935 21.0116 18.7779C21.8906 17.4623 22.3598 15.9156 22.3598 14.3333C22.3598 12.2116 21.517 10.1768 20.0167 8.67649C18.5164 7.1762 16.4816 6.33335 14.3598 6.33335Z" fill="#121212"/>
<path d="M26.6668 27.6667C26.5354 27.6673 26.4052 27.6417 26.2839 27.5913C26.1625 27.5409 26.0524 27.4668 25.9601 27.3733L20.4534 21.8667C20.2768 21.6771 20.1806 21.4264 20.1852 21.1673C20.1898 20.9082 20.2947 20.661 20.478 20.4778C20.6612 20.2946 20.9083 20.1897 21.1674 20.1851C21.4265 20.1805 21.6772 20.2767 21.8668 20.4533L27.3734 25.96C27.5607 26.1475 27.6659 26.4017 27.6659 26.6667C27.6659 26.9317 27.5607 27.1858 27.3734 27.3733C27.2811 27.4668 27.1711 27.5409 27.0497 27.5913C26.9284 27.6417 26.7982 27.6673 26.6668 27.6667Z" fill="#121212"/>
</svg>
